<svg width="244" height="244" viewBox="0 0 244 244" fill="none" xmlns="http://www.w3.org/2000/svg">
<g id="fig-gear">
<ellipse id="Ellipse 2.1" cx="121.742" cy="121.593" rx="116.742" ry="116.593" fill="#1B9F97" stroke="#1B2642" stroke-width="10"/>
<g id="Group">
<g id="Subtract" filter="url(#filter0_d)">
<path fill-rule="evenodd" clip-rule="evenodd" d="M171.405 105.907C173.085 103.238 174.335 100.27 175.055 97.1007L175.055 97.1007C174.335 100.27 173.086 103.238 171.405 105.907L171.405 105.907ZM165.079 119.04L168.018 123.708C172.956 120.599 177.141 116.413 180.25 111.476L175.582 108.537C177.557 105.403 179.024 101.917 179.87 98.1952L185.248 99.4179C185.883 96.6257 186.215 93.7284 186.215 90.7661C186.215 87.8038 185.883 84.9064 185.248 82.1142L179.87 83.3369C179.024 79.615 177.557 76.1294 175.583 72.9951L180.25 70.0562C177.141 65.1189 172.956 60.9332 168.018 57.8245L165.079 62.492C161.945 60.5179 158.459 59.0505 154.738 58.2049L155.96 52.8268C153.168 52.192 150.271 51.859 147.308 51.859C144.346 51.859 141.449 52.192 138.657 52.8268L139.879 58.2051C136.157 59.0507 132.672 60.5181 129.538 62.4923L126.599 57.8245C121.661 60.9332 117.476 65.1189 114.367 70.0562L119.035 72.9954C117.061 76.1297 115.593 79.6152 114.748 83.337L109.369 82.1142C108.734 84.9064 108.401 87.8038 108.401 90.7661C108.401 93.7284 108.734 96.6257 109.369 99.4179L114.748 98.1951C115.593 101.917 117.061 105.402 119.035 108.537L114.367 111.476C117.476 116.413 121.661 120.599 126.599 123.708L129.538 119.04C132.672 121.014 136.158 122.481 139.879 123.327L138.657 128.705C141.449 129.34 144.346 129.673 147.308 129.673C150.271 129.673 153.168 129.34 155.96 128.705L154.737 123.327C158.459 122.481 161.945 121.014 165.079 119.04ZM140.974 63.0193C137.857 63.728 134.934 64.9485 132.299 66.5878C134.934 64.9485 137.857 63.728 140.974 63.0193L140.974 63.0193ZM153.643 63.0191L153.643 63.0193C156.812 63.7397 159.78 64.9891 162.449 66.6697L162.449 66.6695C159.78 64.9889 156.812 63.7396 153.643 63.0191ZM171.405 75.6255L171.405 75.6256C173.085 78.2946 174.335 81.2625 175.055 84.4314L175.055 84.4314C174.335 81.2624 173.086 78.2945 171.405 75.6255ZM147.308 106.155C155.807 106.155 162.697 99.2649 162.697 90.766C162.697 82.2672 155.807 75.3774 147.308 75.3774C138.809 75.3774 131.92 82.2672 131.92 90.766C131.92 99.2649 138.809 106.155 147.308 106.155Z" fill="white"/>
</g>
<g id="Subtract_2" filter="url(#filter1_d)">
<path fill-rule="evenodd" clip-rule="evenodd" d="M150.762 151.048C149.662 155.89 147.753 160.425 145.185 164.503L151.258 168.326C147.213 174.749 141.768 180.195 135.345 184.239L131.521 178.167C127.443 180.735 122.909 182.644 118.067 183.744L119.657 190.741C116.025 191.567 112.255 192 108.402 192C104.548 192 100.778 191.567 97.1458 190.741L98.7366 183.744C93.8946 182.644 89.3599 180.735 85.2823 178.167L81.4586 184.239C75.0354 180.195 69.59 174.749 65.5455 168.326L71.6182 164.503C69.0499 160.425 67.1409 155.89 66.0408 151.048L59.0437 152.639C58.2179 149.006 57.7847 145.237 57.7847 141.383C57.7847 137.529 58.2179 133.76 59.0437 130.127L66.0408 131.718C67.1409 126.876 69.05 122.342 71.6183 118.264L65.5455 114.44C69.59 108.017 75.0354 102.572 81.4587 98.5271L85.2824 104.6C89.36 102.032 93.8946 100.123 98.7366 99.0224L97.1459 92.0253C100.778 91.1994 104.548 90.7662 108.402 90.7662C112.255 90.7662 116.025 91.1994 119.657 92.0253L118.067 99.0224C122.909 100.123 127.443 102.032 131.521 104.6L135.345 98.5271C141.768 102.572 147.213 108.017 151.258 114.44L145.185 118.264C147.753 122.342 149.662 126.876 150.762 131.718L157.76 130.127C158.585 133.76 159.019 137.529 159.019 141.383C159.019 145.237 158.585 149.006 157.76 152.639L150.762 151.048ZM108.402 161.403C119.459 161.403 128.422 152.44 128.422 141.383C128.422 130.326 119.459 121.363 108.402 121.363C97.345 121.363 88.3816 130.326 88.3816 141.383C88.3816 152.44 97.345 161.403 108.402 161.403Z" fill="#1B2642"/>
</g>
</g>
</g>
<defs>
<filter id="filter0_d" x="104.401" y="51.859" width="85.8141" height="85.8141" filterUnits="userSpaceOnUse" color-interpolation-filters="sRGB">
<feFlood flood-opacity="0" result="BackgroundImageFix"/>
<feColorMatrix in="SourceAlpha" type="matrix" values="0 0 0 0 0 0 0 0 0 0 0 0 0 0 0 0 0 0 127 0"/>
<feOffset dy="4"/>
<feGaussianBlur stdDeviation="2"/>
<feColorMatrix type="matrix" values="0 0 0 0 0 0 0 0 0 0 0 0 0 0 0 0 0 0 0.25 0"/>
<feBlend mode="normal" in2="BackgroundImageFix" result="effect1_dropShadow"/>
<feBlend mode="normal" in="SourceGraphic" in2="effect1_dropShadow" result="shape"/>
</filter>
<filter id="filter1_d" x="53.7847" y="90.7662" width="109.234" height="109.234" filterUnits="userSpaceOnUse" color-interpolation-filters="sRGB">
<feFlood flood-opacity="0" result="BackgroundImageFix"/>
<feColorMatrix in="SourceAlpha" type="matrix" values="0 0 0 0 0 0 0 0 0 0 0 0 0 0 0 0 0 0 127 0"/>
<feOffset dy="4"/>
<feGaussianBlur stdDeviation="2"/>
<feColorMatrix type="matrix" values="0 0 0 0 0 0 0 0 0 0 0 0 0 0 0 0 0 0 0.25 0"/>
<feBlend mode="normal" in2="BackgroundImageFix" result="effect1_dropShadow"/>
<feBlend mode="normal" in="SourceGraphic" in2="effect1_dropShadow" result="shape"/>
</filter>
</defs>
</svg>
