<svg width="244" height="244" viewBox="0 0 244 244" fill="none" xmlns="http://www.w3.org/2000/svg">
<g id="fig-idea4">
<ellipse id="Ellipse 2" cx="121.742" cy="121.593" rx="116.742" ry="116.593" fill="#21A098" stroke="#1B2642" stroke-width="10"/>
<g id="light bumb" filter="url(#filter0_d)">
<path id="Subtract" fill-rule="evenodd" clip-rule="evenodd" d="M146.247 143.828C154.789 136.783 160.232 126.126 160.232 114.198C160.232 92.9856 143.014 75.7892 121.774 75.7892C100.534 75.7892 83.3154 92.9856 83.3154 114.198C83.3154 126.126 88.759 136.783 97.3003 143.828C98.2595 144.619 98.8692 145.983 99.2943 147.736C105.476 152.803 113.383 155.844 122 155.844C130.361 155.844 138.054 152.981 144.151 148.182C144.579 146.213 145.208 144.685 146.247 143.828ZM143.844 149.867C137.722 154.352 130.17 157 122 157C113.6 157 105.853 154.201 99.6428 149.484C99.9368 151.269 100.122 153.326 100.32 155.522C100.353 155.885 100.386 156.252 100.42 156.622C106.423 161.156 113.898 163.844 122 163.844C129.885 163.844 137.176 161.298 143.094 156.983C143.14 156.49 143.184 156.003 143.227 155.522C143.411 153.482 143.585 151.561 143.844 149.867ZM142.947 158.504C136.991 162.602 129.776 165 122 165C114.011 165 106.614 162.468 100.567 158.164C100.805 160.562 101.109 163.055 101.619 165.489C107.405 169.496 114.429 171.844 122 171.844C129.342 171.844 136.169 169.636 141.852 165.849C142.384 163.416 142.702 160.916 142.947 158.504ZM141.46 167.475C135.806 170.978 129.139 173 122 173C114.632 173 107.766 170.846 101.999 167.134C104.065 175.248 108.851 182.287 121.774 182.287C134.515 182.287 139.347 175.445 141.46 167.475Z" fill="#E3B43C"/>
<path id="Intersect" fill-rule="evenodd" clip-rule="evenodd" d="M171.144 119.144L181.083 120.254L191.021 121.364C191.307 118.803 191.453 116.206 191.453 113.583C191.453 110.959 191.307 108.362 191.021 105.801L181.083 106.911L171.144 108.021C171.348 109.847 171.453 111.702 171.453 113.583C171.453 115.463 171.348 117.318 171.144 119.144ZM168.415 76.3873L160.607 82.6344C158.285 79.7325 155.644 77.0966 152.737 74.7797L158.969 66.9595L165.202 59.1393C169.273 62.384 172.971 66.0751 176.224 70.1401L168.415 76.3873ZM128.441 54.3351L127.335 64.2738C125.509 64.0706 123.653 63.9663 121.773 63.9663C119.893 63.9663 118.037 64.0706 116.211 64.2738L115.106 54.3351L114 44.3964C116.559 44.1117 119.153 43.9663 121.773 43.9663C124.394 43.9663 126.988 44.1117 129.546 44.3964L128.441 54.3351ZM84.577 66.9595L90.8095 74.7797C87.9024 77.0966 85.2615 79.7325 82.9398 82.6344L75.1313 76.3873L67.3228 70.1401C70.5749 66.0751 74.2731 62.384 78.3444 59.1393L84.577 66.9595ZM72.0933 113.583C72.0933 111.702 72.198 109.847 72.4019 108.021L62.4637 106.911L52.5255 105.801C52.2394 108.362 52.0933 110.959 52.0933 113.583C52.0933 116.206 52.2394 118.803 52.5255 121.364L62.4637 120.254L72.4019 119.144C72.198 117.318 72.0933 115.463 72.0933 113.583ZM75.1313 150.778L82.9398 144.531C85.2615 147.433 87.9024 150.069 90.8095 152.386L84.577 160.206L78.3444 168.026C74.2731 164.781 70.5749 161.09 67.3228 157.025L75.1313 150.778ZM158.969 160.206L152.737 152.386C155.644 150.069 158.285 147.433 160.607 144.531L168.415 150.778L176.224 157.025C172.971 161.09 169.273 164.781 165.202 168.026L158.969 160.206Z" fill="#E3B43C"/>
</g>
</g>
<defs>
<filter id="filter0_d" x="48.0933" y="43.9663" width="147.36" height="146.321" filterUnits="userSpaceOnUse" color-interpolation-filters="sRGB">
<feFlood flood-opacity="0" result="BackgroundImageFix"/>
<feColorMatrix in="SourceAlpha" type="matrix" values="0 0 0 0 0 0 0 0 0 0 0 0 0 0 0 0 0 0 127 0"/>
<feOffset dy="4"/>
<feGaussianBlur stdDeviation="2"/>
<feColorMatrix type="matrix" values="0 0 0 0 0 0 0 0 0 0 0 0 0 0 0 0 0 0 0.25 0"/>
<feBlend mode="normal" in2="BackgroundImageFix" result="effect1_dropShadow"/>
<feBlend mode="normal" in="SourceGraphic" in2="effect1_dropShadow" result="shape"/>
</filter>
</defs>
</svg>
