<svg width="2514" height="583" viewBox="0 0 2514 583" fill="none" xmlns="http://www.w3.org/2000/svg">
<path fill-rule="evenodd" clip-rule="evenodd" d="M23.4541 439.52L0 572.998H83.2L93.0994 516.489C64.8021 496.087 40.9977 469.841 23.4541 439.52ZM38.7167 352.659L63.1138 213.814C85.3962 175.892 119.702 145.885 160.794 129.031L134.4 278.598H272C308.8 278.598 336.533 267.398 355.2 244.998C372.146 224.178 381.4 201.161 382.962 175.945C407.728 201.679 425.734 233.964 434.125 269.944C427.931 279.35 420.822 288.368 412.8 296.998C377.6 334.865 327.733 353.798 263.2 353.798H121.6L101.966 465.876C69.6925 436.694 46.8887 397.235 38.7167 352.659ZM460.219 209.284C420.402 126.298 335.592 69 237.398 69C176.821 69 121.337 90.8072 78.3684 127L98.4 12.9983H312.8C364.533 12.9983 402.933 27.6649 428 56.9983C453.067 86.3316 465.6 120.998 465.6 160.998C465.6 177.854 463.806 193.95 460.219 209.284ZM500.175 535.398C528.442 566.865 566.575 582.598 614.575 582.598C668.442 582.598 715.642 564.465 756.175 528.198L717.775 473.798C687.908 498.865 656.708 511.398 624.175 511.398C598.042 511.398 577.242 502.332 561.775 484.198C546.842 466.065 539.375 441.265 539.375 409.798V400.198H803.375C813.508 369.798 818.575 340.465 818.575 312.198C818.575 260.465 805.775 221.265 780.175 194.598C754.575 167.932 718.842 154.598 672.975 154.598C608.975 154.598 556.975 179.665 516.975 229.798C477.508 279.398 457.775 339.398 457.775 409.798C457.775 462.065 471.908 503.932 500.175 535.398ZM739.375 331.398H550.575C558.042 299.932 571.375 274.598 590.575 255.398C610.308 235.665 635.108 225.798 664.975 225.798C685.775 225.798 703.108 231.932 716.975 244.198C731.375 255.932 739.375 275.132 740.975 301.798C741.508 309.265 740.975 319.132 739.375 331.398ZM939.037 164.198L867.037 572.998H946.237L987.038 343.398C993.971 304.998 1007.57 276.998 1027.84 259.398C1048.1 241.798 1068.64 232.998 1089.44 232.998C1109.7 232.998 1128.37 239.932 1145.44 253.798L1169.44 178.598C1153.44 162.598 1133.7 154.598 1110.24 154.598C1070.77 154.598 1037.17 173.798 1009.44 212.198L1018.24 164.198H939.037ZM1268.51 86.5983C1276.51 94.065 1286.37 97.7983 1298.11 97.7983C1312.51 97.7983 1325.04 92.1983 1335.71 80.9983C1346.91 69.7983 1352.51 56.465 1352.51 40.9983C1352.51 29.7983 1348.51 20.4649 1340.51 12.9983C1333.04 4.99829 1323.17 0.998291 1310.91 0.998291C1297.04 0.998291 1284.51 6.5983 1273.31 17.7983C1262.64 28.9983 1257.31 42.3316 1257.31 57.7983C1257.31 68.9983 1261.04 78.5983 1268.51 86.5983ZM1246.11 164.198L1174.11 572.998H1253.31L1325.31 164.198H1246.11ZM1471.69 572.998L1531.69 235.398H1618.09L1630.09 164.198H1543.69L1553.29 112.998C1558.09 87.9316 1570.89 75.3983 1591.69 75.3983C1607.69 75.3983 1625.55 80.1983 1645.29 89.7983L1657.29 23.3983C1633.29 9.53161 1608.75 2.59827 1583.69 2.59827C1523.95 2.59827 1488.22 33.7983 1476.49 96.1983L1464.49 164.198H1404.49L1391.69 235.398H1452.49L1392.49 572.998H1471.69ZM1661.11 535.398C1689.38 566.865 1727.51 582.598 1775.51 582.598C1829.38 582.598 1876.58 564.465 1917.11 528.198L1878.71 473.798C1848.85 498.865 1817.65 511.398 1785.11 511.398C1758.98 511.398 1738.18 502.332 1722.71 484.198C1707.78 466.065 1700.31 441.265 1700.31 409.798V400.198H1964.31C1974.45 369.798 1979.51 340.465 1979.51 312.198C1979.51 260.465 1966.71 221.265 1941.11 194.598C1915.51 167.932 1879.78 154.598 1833.91 154.598C1769.91 154.598 1717.91 179.665 1677.91 229.798C1638.45 279.398 1618.71 339.398 1618.71 409.798C1618.71 462.065 1632.85 503.932 1661.11 535.398ZM1900.31 331.398H1711.51C1718.98 299.932 1732.31 274.598 1751.51 255.398C1771.25 235.665 1796.05 225.798 1825.91 225.798C1846.71 225.798 1864.05 231.932 1877.91 244.198C1892.31 255.932 1900.31 275.132 1901.91 301.798C1902.45 309.265 1901.91 319.132 1900.31 331.398ZM2099.98 164.198L2027.97 572.998H2107.18L2147.98 343.398C2154.91 304.998 2168.51 276.998 2188.77 259.398C2209.04 241.798 2229.57 232.998 2250.37 232.998C2270.64 232.998 2289.31 239.932 2306.37 253.798L2330.37 178.598C2314.37 162.598 2294.64 154.598 2271.18 154.598C2231.71 154.598 2198.11 173.798 2170.37 212.198L2179.18 164.198H2099.98ZM2429.44 86.5983C2437.44 94.065 2447.31 97.7983 2459.04 97.7983C2473.44 97.7983 2485.98 92.1983 2496.64 80.9983C2507.84 69.7983 2513.44 56.465 2513.44 40.9983C2513.44 29.7983 2509.44 20.4649 2501.44 12.9983C2493.98 4.99829 2484.11 0.998291 2471.84 0.998291C2457.98 0.998291 2445.44 6.5983 2434.24 17.7983C2423.58 28.9983 2418.24 42.3316 2418.24 57.7983C2418.24 68.9983 2421.98 78.5983 2429.44 86.5983ZM2407.04 164.198L2335.04 572.998H2414.24L2486.24 164.198H2407.04Z" fill="white"/>
</svg>
