<svg fill="none" class="header-title" viewBox="0 0 2514 583"><path fill="#fff" fill-rule="evenodd" d="M23.454 439.52L0 572.998h83.2l9.9-56.509c-28.298-20.402-52.102-46.648-69.646-76.969zm15.263-86.861l24.397-138.845c22.282-37.922 56.588-67.929 97.68-84.783L134.4 278.598H272c36.8 0 64.533-11.2 83.2-33.6 16.946-20.82 26.2-43.837 27.762-69.053 24.766 25.734 42.772 58.019 51.163 93.999-6.194 9.406-13.303 18.424-21.325 27.054-35.2 37.867-85.067 56.8-149.6 56.8H121.6l-19.634 112.078c-32.273-29.182-55.077-68.641-63.25-113.217zm421.502-143.375C420.402 126.298 335.592 69 237.398 69c-60.577 0-116.061 21.807-159.03 58L98.4 12.998h214.4c51.733 0 90.133 14.667 115.2 44 25.067 29.334 37.6 64 37.6 104 0 16.856-1.794 32.952-5.381 48.286zm39.956 326.114c28.267 31.467 66.4 47.2 114.4 47.2 53.867 0 101.067-18.133 141.6-54.4l-38.4-54.4c-29.867 25.067-61.067 37.6-93.6 37.6-26.133 0-46.933-9.066-62.4-27.2-14.933-18.133-22.4-42.933-22.4-74.4v-9.6h264c10.133-30.4 15.2-59.733 15.2-88 0-51.733-12.8-90.933-38.4-117.6-25.6-26.666-61.333-40-107.2-40-64 0-116 25.067-156 75.2-39.467 49.6-59.2 109.6-59.2 180 0 52.267 14.133 94.134 42.4 125.6zm239.2-204h-188.8c7.467-31.466 20.8-56.8 40-76 19.733-19.733 44.533-29.6 74.4-29.6 20.8 0 38.133 6.134 52 18.4 14.4 11.734 22.4 30.934 24 57.6.533 7.467 0 17.334-1.6 29.6zm199.662-167.2l-72 408.8h79.2l40.801-229.6c6.933-38.4 20.532-66.4 40.802-84 20.26-17.6 40.8-26.4 61.6-26.4 20.26 0 38.93 6.934 56 20.8l24-75.2c-16-16-35.74-24-59.2-24-39.47 0-73.07 19.2-100.8 57.6l8.8-48h-79.203zm329.473-77.6c8 7.467 17.86 11.2 29.6 11.2 14.4 0 26.93-5.6 37.6-16.8 11.2-11.2 16.8-24.533 16.8-40 0-11.2-4-20.533-12-28-7.47-8-17.34-12-29.6-12-13.87 0-26.4 5.6-37.6 16.8-10.67 11.2-16 24.534-16 40 0 11.2 3.73 20.8 11.2 28.8zm-22.4 77.6l-72 408.8h79.2l72-408.8h-79.2zm225.58 408.8l60-337.6h86.4l12-71.2h-86.4l9.6-51.2c4.8-25.066 17.6-37.6 38.4-37.6 16 0 33.86 4.8 53.6 14.4l12-66.4c-24-13.866-48.54-20.8-73.6-20.8-59.74 0-95.47 31.2-107.2 93.6l-12 68h-60l-12.8 71.2h60.8l-60 337.6h79.2zm189.42-37.6c28.27 31.467 66.4 47.2 114.4 47.2 53.87 0 101.07-18.133 141.6-54.4l-38.4-54.4c-29.86 25.067-61.06 37.6-93.6 37.6-26.13 0-46.93-9.066-62.4-27.2-14.93-18.133-22.4-42.933-22.4-74.4v-9.6h264c10.14-30.4 15.2-59.733 15.2-88 0-51.733-12.8-90.933-38.4-117.6-25.6-26.666-61.33-40-107.2-40-64 0-116 25.067-156 75.2-39.46 49.6-59.2 109.6-59.2 180 0 52.267 14.14 94.134 42.4 125.6zm239.2-204h-188.8c7.47-31.466 20.8-56.8 40-76 19.74-19.733 44.54-29.6 74.4-29.6 20.8 0 38.14 6.134 52 18.4 14.4 11.734 22.4 30.934 24 57.6.54 7.467 0 17.334-1.6 29.6zm199.67-167.2l-72.01 408.8h79.21l40.8-229.6c6.93-38.4 20.53-66.4 40.79-84 20.27-17.6 40.8-26.4 61.6-26.4 20.27 0 38.94 6.934 56 20.8l24-75.2c-16-16-35.73-24-59.19-24-39.47 0-73.07 19.2-100.81 57.6l8.81-48h-79.2zm329.46-77.6c8 7.467 17.87 11.2 29.6 11.2 14.4 0 26.94-5.6 37.6-16.8 11.2-11.2 16.8-24.533 16.8-40 0-11.2-4-20.533-12-28-7.46-8-17.33-12-29.6-12-13.86 0-26.4 5.6-37.6 16.8-10.66 11.2-16 24.534-16 40 0 11.2 3.74 20.8 11.2 28.8zm-22.4 77.6l-72 408.8h79.2l72-408.8h-79.2z" clip-rule="evenodd"/></svg>